Consolig-Italic.ufo
<glyph name="ampersand_ampersand.liga" format="2">
  <advance width="1126"/>
  <outline>
    <contour>
      <point x="373" y="1237" type="qcurve" smooth="yes"/>
      <point x="296" y="1237"/>
      <point x="209" y="1145"/>
      <point x="209" y="1067" type="qcurve" smooth="yes"/>
      <point x="209" y="1004"/>
      <point x="249" y="920"/>
      <point x="293" y="864" type="qcurve" smooth="yes"/>
      <point x="320" y="829" type="line"/>
      <point x="371" y="857"/>
      <point x="426" y="892"/>
      <point x="495" y="959"/>
      <point x="529" y="1033"/>
      <point x="529" y="1077" type="qcurve" smooth="yes"/>
      <point x="529" y="1151"/>
      <point x="445" y="1237"/>
    </contour>
    <contour>
      <point x="-471" y="1237" type="qcurve" smooth="yes"/>
      <point x="-548" y="1237"/>
      <point x="-635" y="1145"/>
      <point x="-635" y="1067" type="qcurve" smooth="yes"/>
      <point x="-635" y="1004"/>
      <point x="-595" y="920"/>
      <point x="-551" y="864" type="qcurve" smooth="yes"/>
      <point x="-524" y="829" type="line"/>
      <point x="-473" y="857"/>
      <point x="-418" y="892"/>
      <point x="-349" y="959"/>
      <point x="-315" y="1033"/>
      <point x="-315" y="1077" type="qcurve" smooth="yes"/>
      <point x="-315" y="1151"/>
      <point x="-399" y="1237"/>
    </contour>
    <contour>
      <point x="-747" y="373" type="qcurve" smooth="yes"/>
      <point x="-747" y="262"/>
      <point x="-615" y="135"/>
      <point x="-502" y="135" type="qcurve" smooth="yes"/>
      <point x="-371.5" y="135"/>
      <point x="-274" y="231" type="qcurve"/>
      <point x="-210" y="306" type="line"/>
      <point x="-572" y="641" type="line"/>
      <point x="-592" y="629" type="line" smooth="yes"/>
      <point x="-638" y="598"/>
      <point x="-700" y="538"/>
      <point x="-747" y="435"/>
    </contour>
    <contour>
      <point x="666" y="109" type="line"/>
      <point x="521" y="-14"/>
      <point x="318" y="-14" type="qcurve" smooth="yes"/>
      <point x="145" y="-14"/>
      <point x="21" y="90" type="qcurve" smooth="yes"/>
      <point x="5" y="103"/>
      <point x="-40" y="145"/>
      <point x="-54" y="159.5" type="qcurve" smooth="yes"/>
      <point x="-68" y="174" type="line"/>
      <point x="-92" y="197" type="line"/>
      <point x="-132" y="153"/>
      <point x="-178" y="109" type="qcurve" smooth="yes"/>
      <point x="-323" y="-14"/>
      <point x="-526" y="-14" type="qcurve" smooth="yes"/>
      <point x="-668" y="-14"/>
      <point x="-861" y="100"/>
      <point x="-902" y="204" type="qcurve" smooth="yes"/>
      <point x="-928" y="269"/>
      <point x="-928" y="352" type="qcurve" smooth="yes"/>
      <point x="-928" y="427"/>
      <point x="-890" y="550"/>
      <point x="-815" y="642"/>
      <point x="-737" y="708"/>
      <point x="-682" y="741" type="qcurve"/>
      <point x="-704" y="772" type="line"/>
      <point x="-815" y="909"/>
      <point x="-815" y="1051" type="qcurve" smooth="yes"/>
      <point x="-815" y="1168"/>
      <point x="-707" y="1324"/>
      <point x="-614" y="1359" type="qcurve" smooth="yes"/>
      <point x="-549" y="1384"/>
      <point x="-465" y="1384" type="qcurve" smooth="yes"/>
      <point x="-350" y="1384"/>
      <point x="-193" y="1290"/>
      <point x="-160" y="1206" type="qcurve" smooth="yes"/>
      <point x="-139" y="1154"/>
      <point x="-139" y="1094" type="qcurve" smooth="yes"/>
      <point x="-139" y="1051"/>
      <point x="-159" y="973"/>
      <point x="-183" y="916"/>
      <point x="-236" y="856"/>
      <point x="-271" y="822"/>
      <point x="-346" y="771"/>
      <point x="-380" y="751"/>
      <point x="-422" y="727" type="qcurve"/>
      <point x="-102" y="439" type="line"/>
      <point x="-24" y="540"/>
      <point x="33" y="601" type="qcurve" smooth="yes"/>
      <point x="55" y="625"/>
      <point x="124" y="689"/>
      <point x="147.5" y="709.5" type="qcurve" smooth="yes"/>
      <point x="171" y="730" type="line"/>
      <point x="140" y="772" type="line"/>
      <point x="29" y="909"/>
      <point x="29" y="1051" type="qcurve" smooth="yes"/>
      <point x="29" y="1168"/>
      <point x="137" y="1324"/>
      <point x="230" y="1359" type="qcurve" smooth="yes"/>
      <point x="295" y="1384"/>
      <point x="379" y="1384" type="qcurve" smooth="yes"/>
      <point x="494" y="1384"/>
      <point x="651" y="1290"/>
      <point x="684" y="1206" type="qcurve" smooth="yes"/>
      <point x="705" y="1154"/>
      <point x="705" y="1094" type="qcurve" smooth="yes"/>
      <point x="705" y="1051"/>
      <point x="686" y="973"/>
      <point x="661" y="916"/>
      <point x="609" y="857"/>
      <point x="572" y="821"/>
      <point x="500" y="772"/>
      <point x="462" y="750"/>
      <point x="422.469" y="727.218" type="qcurve" smooth="yes"/>
      <point x="413" y="722"/>
      <point x="408" y="719" type="qcurve"/>
      <point x="666" y="397" type="line"/>
      <point x="707.031" y="509.93"/>
      <point x="707.188" y="661.335" type="qcurve" smooth="yes"/>
      <point x="707.188" y="671.573"/>
      <point x="707" y="682" type="qcurve"/>
      <point x="883" y="682" type="line"/>
      <point x="883" y="429"/>
      <point x="783" y="252" type="qcurve"/>
      <point x="985" y="0" type="line"/>
      <point x="754" y="0" type="line"/>
    </contour>
    <contour>
      <point x="18" y="330" type="line"/>
      <point x="162" y="200" type="line"/>
      <point x="227" y="135"/>
      <point x="342" y="135" type="qcurve" smooth="yes"/>
      <point x="472.5" y="135"/>
      <point x="570" y="231" type="qcurve"/>
      <point x="273" y="606" type="line"/>
      <point x="180" y="533"/>
      <point x="135" y="482" type="qcurve" smooth="yes"/>
      <point x="112" y="456"/>
      <point x="54" y="380"/>
      <point x="36" y="355" type="qcurve" smooth="yes"/>
    </contour>
  </outline>
</glyph>
<glyph name="asciicircum_equal.liga" format="2">
  <advance width="1126"/>
  <outline>
    <contour>
      <point x="852" y="298" type="line"/>
      <point x="-136" y="298" type="line"/>
      <point x="-136" y="445" type="line"/>
      <point x="852" y="445" type="line"/>
    </contour>
    <contour>
      <point x="-46" y="793" type="line"/>
      <point x="852" y="793" type="line"/>
      <point x="852" y="646" type="line"/>
      <point x="-136" y="646" type="line"/>
      <point x="-434" y="1169" type="line"/>
      <point x="-706" y="668" type="line"/>
      <point x="-864" y="668" type="line"/>
      <point x="-498" y="1307" type="line"/>
      <point x="-356" y="1307" type="line"/>
    </contour>
  </outline>
</glyph>
<glyph name="asciitilde_greater.liga" format="2">
  <advance width="1126"/>
  <outline>
    <contour>
      <point x="-919" y="401" type="line"/>
      <point x="-919.13" y="407.545"/>
      <point x="-919.13" y="414.011" type="qcurve" smooth="yes"/>
      <point x="-919.13" y="513.828"/>
      <point x="-860.229" y="663.772"/>
      <point x="-730.944" y="754"/>
      <point x="-637" y="754" type="qcurve" smooth="yes"/>
      <point x="-542" y="754"/>
      <point x="-457" y="689" type="qcurve" smooth="yes"/>
      <point x="-435" y="673"/>
      <point x="-393" y="634"/>
      <point x="-335" y="577"/>
      <point x="-325" y="567" type="qcurve" smooth="yes"/>
      <point x="-304" y="547"/>
      <point x="-276" y="524"/>
      <point x="-227" y="502"/>
      <point x="-201" y="502" type="qcurve" smooth="yes"/>
      <point x="-177" y="502"/>
      <point x="32" y="613"/>
      <point x="49" y="618" type="qcurve" smooth="yes"/>
      <point x="135" y="642"/>
      <point x="232" y="642" type="qcurve" smooth="yes"/>
      <point x="237" y="642"/>
      <point x="510" y="629" type="qcurve"/>
      <point x="68" y="995" type="line"/>
      <point x="176" y="1106" type="line"/>
      <point x="848" y="545" type="line"/>
      <point x="176" y="-16" type="line"/>
      <point x="68" y="94" type="line"/>
      <point x="519" y="466" type="line"/>
      <point x="479" y="468"/>
      <point x="272" y="482"/>
      <point x="230" y="482" type="qcurve" smooth="yes"/>
      <point x="161" y="482"/>
      <point x="112" y="470" type="qcurve" smooth="yes"/>
      <point x="93" y="466"/>
      <point x="16" y="426"/>
      <point x="-70" y="376"/>
      <point x="-83" y="370" type="qcurve" smooth="yes"/>
      <point x="-135" y="344"/>
      <point x="-207" y="344" type="qcurve" smooth="yes"/>
      <point x="-302" y="344"/>
      <point x="-387" y="409" type="qcurve" smooth="yes"/>
      <point x="-409" y="425"/>
      <point x="-451" y="464"/>
      <point x="-509" y="521"/>
      <point x="-519" y="531" type="qcurve" smooth="yes"/>
      <point x="-540" y="551"/>
      <point x="-568" y="574"/>
      <point x="-617" y="596"/>
      <point x="-643" y="596" type="qcurve" smooth="yes"/>
      <point x="-709" y="596"/>
      <point x="-759" y="493"/>
      <point x="-759" y="401" type="qcurve"/>
    </contour>
  </outline>
</glyph>
<glyph name="asterisk_asterisk.liga" format="2">
  <advance width="1126"/>
  <outline>
    <contour>
      <point x="861" y="840" type="line"/>
      <point x="793" y="721" type="line"/>
      <point x="512" y="907" type="line"/>
      <point x="535" y="565" type="line"/>
      <point x="392" y="565" type="line"/>
      <point x="414" y="907" type="line"/>
      <point x="127" y="721" type="line"/>
      <point x="64" y="838" type="line"/>
      <point x="371" y="989" type="line"/>
      <point x="64" y="1143" type="line"/>
      <point x="133" y="1260" type="line"/>
      <point x="416" y="1071" type="line"/>
      <point x="392" y="1413" type="line"/>
      <point x="535" y="1413" type="line"/>
      <point x="510" y="1071" type="line"/>
      <point x="793" y="1262" type="line"/>
      <point x="863" y="1139" type="line"/>
      <point x="555" y="987" type="line"/>
    </contour>
    <contour>
      <point x="-65" y="840" type="line"/>
      <point x="-133" y="721" type="line"/>
      <point x="-414" y="907" type="line"/>
      <point x="-391" y="565" type="line"/>
      <point x="-534" y="565" type="line"/>
      <point x="-512" y="907" type="line"/>
      <point x="-799" y="721" type="line"/>
      <point x="-862" y="838" type="line"/>
      <point x="-555" y="989" type="line"/>
      <point x="-862" y="1143" type="line"/>
      <point x="-793" y="1260" type="line"/>
      <point x="-510" y="1071" type="line"/>
      <point x="-534" y="1413" type="line"/>
      <point x="-391" y="1413" type="line"/>
      <point x="-416" y="1071" type="line"/>
      <point x="-133" y="1262" type="line"/>
      <point x="-63" y="1139" type="line"/>
      <point x="-371" y="987" type="line"/>
    </contour>
  </outline>
</glyph>
<glyph name="asterisk_slash.liga" format="2">
  <advance width="1126"/>
  <outline>
    <contour>
      <point x="826" y="1413" type="line"/>
      <point x="140" y="-215" type="line"/>
      <point x="-26" y="-215" type="line"/>
      <point x="660" y="1413" type="line"/>
    </contour>
    <contour>
      <point x="-24" y="840" type="line"/>
      <point x="-92" y="721" type="line"/>
      <point x="-373" y="907" type="line"/>
      <point x="-350" y="565" type="line"/>
      <point x="-493" y="565" type="line"/>
      <point x="-471" y="907" type="line"/>
      <point x="-758" y="721" type="line"/>
      <point x="-821" y="838" type="line"/>
      <point x="-514" y="989" type="line"/>
      <point x="-821" y="1143" type="line"/>
      <point x="-752" y="1260" type="line"/>
      <point x="-469" y="1071" type="line"/>
      <point x="-493" y="1413" type="line"/>
      <point x="-350" y="1413" type="line"/>
      <point x="-375" y="1071" type="line"/>
      <point x="-92" y="1262" type="line"/>
      <point x="-22" y="1139" type="line"/>
      <point x="-330" y="987" type="line"/>
    </contour>
  </outline>
</glyph>
<glyph name="bar_bracketright.liga" format="2">
  <advance width="1126"/>
  <outline>
    <contour>
      <point x="-504" y="1448" type="line"/>
      <point x="640" y="1448" type="line"/>
      <point x="640" y="-410" type="line"/>
      <point x="-504" y="-410" type="line"/>
    </contour>
    <contour>
      <point x="-340" y="1308" type="line"/>
      <point x="-340" y="-270" type="line"/>
      <point x="472" y="-270" type="line"/>
      <point x="472" y="1308" type="line"/>
    </contour>
  </outline>
</glyph>
<glyph name="colon_equal.liga" format="2">
  <advance width="1126"/>
  <outline>
    <contour>
      <point x="852" y="646" type="line"/>
      <point x="-8" y="646" type="line"/>
      <point x="-8" y="793" type="line"/>
      <point x="852" y="793" type="line"/>
    </contour>
    <contour>
      <point x="852" y="298" type="line"/>
      <point x="-8" y="298" type="line"/>
      <point x="-8" y="445" type="line"/>
      <point x="852" y="445" type="line"/>
    </contour>
    <contour>
      <point x="-422" y="1022" type="qcurve" smooth="yes"/>
      <point x="-357" y="1022"/>
      <point x="-268" y="933"/>
      <point x="-268" y="803"/>
      <point x="-357" y="715"/>
      <point x="-422" y="715" type="qcurve" smooth="yes"/>
      <point x="-472" y="715"/>
      <point x="-545" y="768"/>
      <point x="-563" y="808" type="qcurve" smooth="yes"/>
      <point x="-575" y="835"/>
      <point x="-575" y="868" type="qcurve" smooth="yes"/>
      <point x="-575" y="918"/>
      <point x="-522" y="992"/>
      <point x="-481" y="1010" type="qcurve" smooth="yes"/>
      <point x="-454" y="1022"/>
    </contour>
    <contour>
      <point x="-422" y="289" type="qcurve" smooth="yes"/>
      <point x="-358" y="289"/>
      <point x="-268" y="200"/>
      <point x="-268" y="70"/>
      <point x="-357" y="-18"/>
      <point x="-422" y="-18" type="qcurve" smooth="yes"/>
      <point x="-472" y="-18"/>
      <point x="-545" y="35"/>
      <point x="-563" y="76" type="qcurve" smooth="yes"/>
      <point x="-575" y="103"/>
      <point x="-575" y="135" type="qcurve" smooth="yes"/>
      <point x="-575" y="185"/>
      <point x="-522" y="258"/>
      <point x="-481" y="276" type="qcurve" smooth="yes"/>
      <point x="-452" y="289"/>
    </contour>
  </outline>
</glyph>
<glyph name="dollar_greater.liga" format="2">
  <advance width="1126"/>
  <outline>
    <contour>
      <point x="-426" y="156" type="line"/>
      <point x="-309" y="156"/>
      <point x="-168" y="253"/>
      <point x="-168" y="352" type="qcurve" smooth="yes"/>
      <point x="-168" y="411"/>
      <point x="-230" y="483"/>
      <point x="-285" y="511" type="qcurve" smooth="yes"/>
      <point x="-329" y="534"/>
      <point x="-375" y="551" type="qcurve"/>
    </contour>
    <contour>
      <point x="-438" y="1155" type="line"/>
      <point x="-543" y="1155"/>
      <point x="-678" y="1064"/>
      <point x="-678" y="975" type="qcurve" smooth="yes"/>
      <point x="-678" y="906"/>
      <point x="-584" y="818"/>
      <point x="-489" y="780" type="qcurve"/>
    </contour>
    <contour>
      <point x="-592" y="0" type="line"/>
      <point x="-705" y="0"/>
      <point x="-874" y="45" type="qcurve"/>
      <point x="-874" y="211" type="line"/>
      <point x="-716" y="156"/>
      <point x="-571" y="156" type="qcurve"/>
      <point x="-512" y="606" type="line"/>
      <point x="-635" y="653"/>
      <point x="-789" y="748"/>
      <point x="-833" y="825" type="qcurve" smooth="yes"/>
      <point x="-864" y="880"/>
      <point x="-864" y="956" type="qcurve" smooth="yes"/>
      <point x="-864" y="1073"/>
      <point x="-727" y="1227"/>
      <point x="-618" y="1268" type="qcurve" smooth="yes"/>
      <point x="-514" y="1305"/>
      <point x="-418" y="1305" type="qcurve"/>
      <point x="-393" y="1495" type="line"/>
      <point x="-248" y="1495" type="line"/>
      <point x="-274" y="1302" type="line"/>
      <point x="848" y="545" type="line"/>
      <point x="176" y="-16" type="line"/>
      <point x="68" y="94" type="line"/>
      <point x="585" y="520" type="line"/>
      <point x="520" y="569"/>
      <point x="311" y="723"/>
      <point x="-163" y="1048"/>
      <point x="-298" y="1120" type="qcurve"/>
      <point x="-350" y="725" type="line"/>
      <point x="-288" y="701"/>
      <point x="-208" y="665"/>
      <point x="-109" y="609"/>
      <point x="-37" y="540"/>
      <point x="-13" y="498" type="qcurve" smooth="yes"/>
      <point x="19" y="440"/>
      <point x="19" y="362" type="qcurve" smooth="yes"/>
      <point x="19" y="115"/>
      <point x="-257" y="32" type="qcurve" smooth="yes"/>
      <point x="-371" y="0"/>
      <point x="-446" y="0" type="qcurve"/>
      <point x="-479" y="-236" type="line"/>
      <point x="-625" y="-236" type="line"/>
    </contour>
  </outline>
</glyph>
<glyph name="eight.dnom" format="2">
  <advance width="1126"/>
  <outline>
    <contour>
      <point x="717" y="414" type="curve"/>
      <point x="800" y="377"/>
      <point x="874" y="325"/>
      <point x="874" y="207" type="curve" smooth="yes"/>
      <point x="874" y="42"/>
      <point x="725" y="-16"/>
      <point x="559" y="-16" type="curve" smooth="yes"/>
      <point x="389" y="-16"/>
      <point x="252" y="36"/>
      <point x="252" y="190" type="curve" smooth="yes"/>
      <point x="252" y="303"/>
      <point x="335" y="357"/>
      <point x="412" y="395" type="curve"/>
      <point x="338" y="431"/>
      <point x="266" y="479"/>
      <point x="266" y="588" type="curve" smooth="yes"/>
      <point x="266" y="742"/>
      <point x="409" y="799"/>
      <point x="567" y="799" type="curve" smooth="yes"/>
      <point x="725" y="799"/>
      <point x="860" y="748"/>
      <point x="860" y="604" type="curve" smooth="yes"/>
      <point x="860" y="505"/>
      <point x="788" y="450"/>
    </contour>
    <contour>
      <point x="582" y="473" type="curve"/>
      <point x="637" y="496"/>
      <point x="700" y="530"/>
      <point x="700" y="598" type="curve" smooth="yes"/>
      <point x="700" y="647"/>
      <point x="654" y="672"/>
      <point x="563" y="672" type="curve" smooth="yes"/>
      <point x="494" y="672"/>
      <point x="426" y="658"/>
      <point x="426" y="598" type="curve" smooth="yes"/>
      <point x="426" y="543"/>
      <point x="479" y="517"/>
      <point x="520" y="498" type="curve" smooth="yes"/>
      <point x="539" y="489"/>
      <point x="559" y="481"/>
    </contour>
    <contour>
      <point x="563" y="113" type="curve" smooth="yes"/>
      <point x="637" y="113"/>
      <point x="711" y="129"/>
      <point x="711" y="201" type="curve" smooth="yes"/>
      <point x="711" y="283"/>
      <point x="604" y="309"/>
      <point x="543" y="332" type="curve"/>
      <point x="487" y="308"/>
      <point x="416" y="278"/>
      <point x="416" y="201" type="curve" smooth="yes"/>
      <point x="416" y="132"/>
      <point x="487" y="113"/>
    </contour>
  </outline>
</glyph>
<glyph name="eightsuperior" format="2">
  <advance width="1126"/>
  <outline>
    <contour>
      <point x="717" y="1045" type="curve"/>
      <point x="800" y="1008"/>
      <point x="874" y="956"/>
      <point x="874" y="838" type="curve" smooth="yes"/>
      <point x="874" y="673"/>
      <point x="725" y="615"/>
      <point x="559" y="615" type="curve" smooth="yes"/>
      <point x="389" y="615"/>
      <point x="252" y="667"/>
      <point x="252" y="821" type="curve" smooth="yes"/>
      <point x="252" y="934"/>
      <point x="335" y="988"/>
      <point x="412" y="1026" type="curve"/>
      <point x="338" y="1062"/>
      <point x="266" y="1110"/>
      <point x="266" y="1219" type="curve" smooth="yes"/>
      <point x="266" y="1373"/>
      <point x="409" y="1430"/>
      <point x="567" y="1430" type="curve" smooth="yes"/>
      <point x="725" y="1430"/>
      <point x="860" y="1379"/>
      <point x="860" y="1235" type="curve" smooth="yes"/>
      <point x="860" y="1136"/>
      <point x="788" y="1081"/>
    </contour>
    <contour>
      <point x="582" y="1104" type="curve"/>
      <point x="637" y="1127"/>
      <point x="700" y="1161"/>
      <point x="700" y="1229" type="curve" smooth="yes"/>
      <point x="700" y="1278"/>
      <point x="654" y="1303"/>
      <point x="563" y="1303" type="curve" smooth="yes"/>
      <point x="494" y="1303"/>
      <point x="426" y="1289"/>
      <point x="426" y="1229" type="curve" smooth="yes"/>
      <point x="426" y="1174"/>
      <point x="479" y="1148"/>
      <point x="520" y="1129" type="curve" smooth="yes"/>
      <point x="539" y="1120"/>
      <point x="559" y="1112"/>
    </contour>
    <contour>
      <point x="563" y="744" type="curve" smooth="yes"/>
      <point x="637" y="744"/>
      <point x="711" y="760"/>
      <point x="711" y="832" type="curve" smooth="yes"/>
      <point x="711" y="914"/>
      <point x="604" y="940"/>
      <point x="543" y="963" type="curve"/>
      <point x="487" y="939"/>
      <point x="416" y="909"/>
      <point x="416" y="832" type="curve" smooth="yes"/>
      <point x="416" y="763"/>
      <point x="487" y="744"/>
    </contour>
  </outline>
</glyph>
<glyph name="equal_exclam_equal.liga" format="2">
  <advance width="1126"/>
  <outline>
    <contour>
      <point x="-460" y="1413" type="line"/>
      <point x="-487" y="383" type="line"/>
      <point x="-641" y="383" type="line"/>
      <point x="-671" y="1413" type="line"/>
    </contour>
    <contour>
      <point x="-698" y="113" type="qcurve" smooth="yes"/>
      <point x="-698" y="170"/>
      <point x="-622" y="246"/>
      <point x="-565" y="246" type="qcurve" smooth="yes"/>
      <point x="-509" y="246"/>
      <point x="-434" y="169"/>
      <point x="-434" y="57"/>
      <point x="-509" y="-18"/>
      <point x="-621" y="-18"/>
      <point x="-698" y="57"/>
    </contour>
    <contour>
      <point x="-1837" y="646" type="line"/>
      <point x="-1837" y="793" type="line"/>
      <point x="-953" y="793" type="line"/>
      <point x="-953" y="646" type="line"/>
    </contour>
    <contour>
      <point x="-1837" y="298" type="line"/>
      <point x="-1837" y="445" type="line"/>
      <point x="-953" y="445" type="line"/>
      <point x="-953" y="298" type="line"/>
    </contour>
    <contour>
      <point x="711" y="646" type="line"/>
      <point x="-179" y="646" type="line"/>
      <point x="-179" y="793" type="line"/>
      <point x="711" y="793" type="line"/>
    </contour>
    <contour>
      <point x="711" y="298" type="line"/>
      <point x="-179" y="298" type="line"/>
      <point x="-179" y="445" type="line"/>
      <point x="711" y="445" type="line"/>
    </contour>
  </outline>
</glyph>
<glyph name="greater_equal.liga" format="2">
  <advance width="1126"/>
  <outline>
    <contour>
      <point x="-547" y="1268" type="line"/>
      <point x="-459" y="1389" type="line"/>
      <point x="563" y="828" type="line"/>
      <point x="-459" y="267" type="line"/>
      <point x="-547" y="387" type="line"/>
      <point x="248" y="826" type="line"/>
    </contour>
    <contour>
      <point x="645" y="0" type="line"/>
      <point x="-645" y="0" type="line"/>
      <point x="-645" y="145" type="line"/>
      <point x="645" y="145" type="line"/>
    </contour>
  </outline>
</glyph>
<glyph name="greater_greater_greater.liga" format="2">
  <advance width="1126"/>
  <outline>
    <contour>
      <point x="-1954" y="985" type="line"/>
      <point x="-1866" y="1106" type="line"/>
      <point x="-844" y="545" type="line"/>
      <point x="-1866" y="-16" type="line"/>
      <point x="-1954" y="104" type="line"/>
      <point x="-1159" y="543" type="line"/>
    </contour>
    <contour>
      <point x="-266" y="985" type="line"/>
      <point x="-178" y="1106" type="line"/>
      <point x="844" y="545" type="line"/>
      <point x="-178" y="-16" type="line"/>
      <point x="-266" y="104" type="line"/>
      <point x="529" y="543" type="line"/>
    </contour>
    <contour>
      <point x="-1110" y="985" type="line"/>
      <point x="-1022" y="1106" type="line"/>
      <point x="0" y="545" type="line"/>
      <point x="-1022" y="-16" type="line"/>
      <point x="-1110" y="104" type="line"/>
      <point x="-315" y="543" type="line"/>
    </contour>
  </outline>
</glyph>
<glyph name="hyphen_asciitilde.liga" format="2">
  <advance width="1126"/>
  <outline>
    <contour>
      <point x="919" y="689" type="line"/>
      <point x="919" y="676" type="line" smooth="yes"/>
      <point x="919" y="522"/>
      <point x="777" y="336"/>
      <point x="637" y="336" type="qcurve" smooth="yes"/>
      <point x="542" y="336"/>
      <point x="457" y="401" type="qcurve" smooth="yes"/>
      <point x="433" y="419"/>
      <point x="349" y="491"/>
      <point x="326" y="508" type="qcurve" smooth="yes"/>
      <point x="323" y="510"/>
      <point x="294" y="532"/>
      <point x="285" y="538"/>
      <point x="258" y="554"/>
      <point x="241" y="559"/>
      <point x="214" y="565"/>
      <point x="201" y="565" type="qcurve" smooth="yes"/>
      <point x="189" y="565"/>
      <point x="168" y="562"/>
      <point x="143" y="553"/>
      <point x="135" y="549"/>
      <point x="102" y="533"/>
      <point x="101" y="532" type="qcurve" smooth="yes"/>
      <point x="21" y="492"/>
      <point x="-20" y="482" type="qcurve" smooth="yes"/>
      <point x="-81" y="465"/>
      <point x="-203" y="463" type="qcurve" smooth="yes"/>
      <point x="-721" y="463" type="line"/>
      <point x="-721" y="627" type="line"/>
      <point x="-203" y="627" type="line" smooth="yes"/>
      <point x="-71" y="627"/>
      <point x="-21" y="649" type="qcurve" smooth="yes"/>
      <point x="-11" y="653"/>
      <point x="92" y="707"/>
      <point x="165" y="729"/>
      <point x="207" y="729" type="qcurve" smooth="yes"/>
      <point x="260" y="729"/>
      <point x="342" y="694"/>
      <point x="388" y="662" type="qcurve" smooth="yes"/>
      <point x="446" y="622"/>
      <point x="519" y="559" type="qcurve" smooth="yes"/>
      <point x="522" y="556"/>
      <point x="541" y="540"/>
      <point x="549" y="533"/>
      <point x="568" y="519"/>
      <point x="579" y="512"/>
      <point x="598" y="502"/>
      <point x="613" y="498"/>
      <point x="633" y="494"/>
      <point x="643" y="494" type="qcurve" smooth="yes"/>
      <point x="709" y="494"/>
      <point x="759" y="597"/>
      <point x="759" y="689" type="qcurve"/>
    </contour>
  </outline>
</glyph>
<glyph name="less_asciitilde.liga" format="2">
  <advance width="1126"/>
  <outline>
    <contour>
      <point x="920" y="696" type="line"/>
      <point x="920" y="683" type="line" smooth="yes"/>
      <point x="920" y="488"/>
      <point x="832" y="343"/>
      <point x="638" y="343" type="curve" smooth="yes"/>
      <point x="559" y="343"/>
      <point x="505" y="372"/>
      <point x="458" y="408" type="curve" smooth="yes"/>
      <point x="410" y="444"/>
      <point x="368" y="490"/>
      <point x="326" y="530" type="curve" smooth="yes"/>
      <point x="294" y="561"/>
      <point x="257" y="595"/>
      <point x="202" y="595" type="curve" smooth="yes"/>
      <point x="160" y="595"/>
      <point x="-5" y="484"/>
      <point x="-49" y="472" type="curve" smooth="yes"/>
      <point x="-110" y="455"/>
      <point x="-160" y="448"/>
      <point x="-232" y="448" type="curve" smooth="yes"/>
      <point x="-297" y="448"/>
      <point x="-405" y="456"/>
      <point x="-510" y="461" type="curve"/>
      <point x="-68" y="95" type="line"/>
      <point x="-176" y="-16" type="line"/>
      <point x="-848" y="545" type="line"/>
      <point x="-176" y="1106" type="line"/>
      <point x="-68" y="996" type="line"/>
      <point x="-519" y="624" type="line"/>
      <point x="-410" y="619"/>
      <point x="-304" y="608"/>
      <point x="-230" y="608" type="curve" smooth="yes"/>
      <point x="-184" y="608"/>
      <point x="-153" y="610"/>
      <point x="-112" y="620" type="curve" smooth="yes"/>
      <point x="-70" y="630"/>
      <point x="43" y="707"/>
      <point x="84" y="727" type="curve" smooth="yes"/>
      <point x="120" y="745"/>
      <point x="161" y="753"/>
      <point x="208" y="753" type="curve" smooth="yes"/>
      <point x="287" y="753"/>
      <point x="341" y="724"/>
      <point x="388" y="688" type="curve" smooth="yes"/>
      <point x="436" y="652"/>
      <point x="478" y="606"/>
      <point x="520" y="566" type="curve" smooth="yes"/>
      <point x="552" y="535"/>
      <point x="589" y="501"/>
      <point x="644" y="501" type="curve" smooth="yes"/>
      <point x="739" y="501"/>
      <point x="760" y="587"/>
      <point x="760" y="696" type="curve"/>
    </contour>
  </outline>
</glyph>
<glyph name="less_asterisk_greater.liga" format="2">
  <advance width="1126"/>
  <outline>
    <contour>
      <point x="-174" y="394" type="line"/>
      <point x="-242" y="275" type="line"/>
      <point x="-523" y="461" type="line"/>
      <point x="-500" y="119" type="line"/>
      <point x="-643" y="119" type="line"/>
      <point x="-621" y="461" type="line"/>
      <point x="-908" y="275" type="line"/>
      <point x="-971" y="392" type="line"/>
      <point x="-664" y="543" type="line"/>
      <point x="-971" y="697" type="line"/>
      <point x="-902" y="814" type="line"/>
      <point x="-619" y="625" type="line"/>
      <point x="-643" y="967" type="line"/>
      <point x="-500" y="967" type="line"/>
      <point x="-525" y="625" type="line"/>
      <point x="-242" y="816" type="line"/>
      <point x="-172" y="693" type="line"/>
      <point x="-480" y="541" type="line"/>
    </contour>
    <contour>
      <point x="-860" y="985" type="line"/>
      <point x="-1655" y="543" type="line"/>
      <point x="-860" y="104" type="line"/>
      <point x="-948" y="-16" type="line"/>
      <point x="-1970" y="545" type="line"/>
      <point x="-948" y="1106" type="line"/>
    </contour>
    <contour>
      <point x="-266" y="985" type="line"/>
      <point x="-178" y="1106" type="line"/>
      <point x="844" y="545" type="line"/>
      <point x="-178" y="-16" type="line"/>
      <point x="-266" y="104" type="line"/>
      <point x="529" y="543" type="line"/>
    </contour>
  </outline>
</glyph>
<glyph name="less_dollar.liga" format="2">
  <advance width="1126"/>
  <outline>
    <contour>
      <point x="418" y="156" type="line"/>
      <point x="535" y="156"/>
      <point x="676" y="253"/>
      <point x="676" y="352" type="qcurve" smooth="yes"/>
      <point x="676" y="411"/>
      <point x="614" y="483"/>
      <point x="559" y="511" type="qcurve" smooth="yes"/>
      <point x="508" y="537"/>
      <point x="469" y="551" type="qcurve"/>
    </contour>
    <contour>
      <point x="406" y="1155" type="line"/>
      <point x="301" y="1155"/>
      <point x="166" y="1064"/>
      <point x="166" y="975" type="qcurve" smooth="yes"/>
      <point x="166" y="906"/>
      <point x="260" y="818"/>
      <point x="355" y="780" type="qcurve"/>
    </contour>
    <contour>
      <point x="570" y="1300" type="line"/>
      <point x="696" y="1287"/>
      <point x="772" y="1268" type="qcurve"/>
      <point x="772" y="1114" type="line"/>
      <point x="622" y="1153"/>
      <point x="551" y="1153" type="qcurve"/>
      <point x="494" y="725" type="line"/>
      <point x="556" y="701"/>
      <point x="636" y="665"/>
      <point x="735" y="609"/>
      <point x="807" y="540"/>
      <point x="831" y="498" type="qcurve" smooth="yes"/>
      <point x="863" y="443"/>
      <point x="863" y="362" type="qcurve" smooth="yes"/>
      <point x="863" y="229"/>
      <point x="711" y="69"/>
      <point x="587" y="32" type="qcurve" smooth="yes"/>
      <point x="486" y="2"/>
      <point x="398" y="2" type="qcurve"/>
      <point x="365" y="-236" type="line"/>
      <point x="219" y="-236" type="line"/>
      <point x="252" y="2" type="line"/>
      <point x="-848" y="545" type="line"/>
      <point x="-176" y="1106" type="line"/>
      <point x="-67" y="995" type="line"/>
      <point x="-551" y="596" type="line"/>
      <point x="276" y="180" type="line"/>
      <point x="332" y="606" type="line"/>
      <point x="209" y="653"/>
      <point x="55" y="748"/>
      <point x="11" y="825" type="qcurve" smooth="yes"/>
      <point x="-20" y="880"/>
      <point x="-20" y="956" type="qcurve" smooth="yes"/>
      <point x="-20" y="1073"/>
      <point x="117" y="1227"/>
      <point x="226" y="1268" type="qcurve" smooth="yes"/>
      <point x="325" y="1305"/>
      <point x="426" y="1305" type="qcurve"/>
      <point x="451" y="1495" type="line"/>
      <point x="596" y="1495" type="line"/>
    </contour>
  </outline>
</glyph>
<glyph name="less_equal.liga" format="2">
  <advance width="1126"/>
  <outline>
    <contour>
      <point x="552" y="1104" type="line"/>
      <point x="495" y="1241" type="line"/>
      <point x="-600" y="778" type="line"/>
      <point x="495" y="315" type="line"/>
      <point x="552" y="452" type="line"/>
      <point x="-220" y="778" type="line"/>
    </contour>
    <contour>
      <point x="645" y="0" type="line"/>
      <point x="-645" y="0" type="line"/>
      <point x="-645" y="145" type="line"/>
      <point x="645" y="145" type="line"/>
    </contour>
  </outline>
</glyph>
<glyph name="less_greater.liga" format="2">
  <advance width="1126"/>
  <outline>
    <contour>
      <point x="990" y="545" type="line"/>
      <point x="-0" y="0" type="line"/>
      <point x="-990" y="545" type="line"/>
      <point x="0" y="1088" type="line"/>
    </contour>
    <contour>
      <point x="0" y="170" type="line"/>
      <point x="675" y="543" type="line"/>
      <point x="-0" y="918" type="line"/>
      <point x="-675" y="543" type="line"/>
    </contour>
  </outline>
</glyph>
<glyph name="ninesuperior" format="2">
  <advance width="1126"/>
  <outline>
    <contour>
      <point x="559" y="1430" type="qcurve" smooth="yes"/>
      <point x="729" y="1430"/>
      <point x="883" y="1251"/>
      <point x="883" y="1071" type="qcurve" smooth="yes"/>
      <point x="883" y="701"/>
      <point x="589" y="646" type="qcurve" smooth="yes"/>
      <point x="505" y="631"/>
      <point x="416" y="631" type="qcurve" smooth="yes"/>
      <point x="291" y="631" type="line"/>
      <point x="291" y="774" type="line"/>
      <point x="436" y="774" type="line" smooth="yes"/>
      <point x="558" y="774"/>
      <point x="685" y="845"/>
      <point x="696" y="940" type="qcurve"/>
      <point x="698" y="948" type="line"/>
      <point x="631" y="926"/>
      <point x="530" y="926" type="qcurve" smooth="yes"/>
      <point x="233" y="926"/>
      <point x="233" y="1168" type="qcurve" smooth="yes"/>
      <point x="233" y="1264"/>
      <point x="341" y="1386"/>
      <point x="428" y="1412" type="qcurve" smooth="yes"/>
      <point x="488" y="1430"/>
    </contour>
    <contour>
      <point x="702" y="1094" type="qcurve"/>
      <point x="702" y="1188"/>
      <point x="633" y="1288"/>
      <point x="551" y="1288" type="qcurve" smooth="yes"/>
      <point x="488" y="1288"/>
      <point x="408" y="1228"/>
      <point x="408" y="1174" type="qcurve" smooth="yes"/>
      <point x="408" y="1067"/>
      <point x="555" y="1067" type="qcurve" smooth="yes"/>
      <point x="657" y="1067"/>
    </contour>
  </outline>
</glyph>
<glyph name="numbersign_braceleft.liga" format="2">
  <advance width="1126"/>
  <outline>
    <contour>
      <point x="301" y="1083" type="line" smooth="yes"/>
      <point x="301" y="1269"/>
      <point x="491" y="1448"/>
      <point x="682" y="1448" type="qcurve" smooth="yes"/>
      <point x="756" y="1448" type="line"/>
      <point x="756" y="1308" type="line"/>
      <point x="697" y="1308" type="line" smooth="yes"/>
      <point x="465" y="1308"/>
      <point x="465" y="1083" type="qcurve" smooth="yes"/>
      <point x="465" y="702" type="line" smooth="yes"/>
      <point x="465" y="463"/>
      <point x="254" y="432" type="qcurve"/>
      <point x="359" y="432"/>
      <point x="467" y="291"/>
      <point x="467" y="162" type="qcurve" smooth="yes"/>
      <point x="467" y="-41" type="line" smooth="yes"/>
      <point x="467" y="-270"/>
      <point x="697" y="-270" type="qcurve" smooth="yes"/>
      <point x="756" y="-270" type="line"/>
      <point x="756" y="-410" type="line"/>
      <point x="682" y="-410" type="line" smooth="yes"/>
      <point x="491" y="-410"/>
      <point x="301" y="-231"/>
      <point x="301" y="-45" type="qcurve" smooth="yes"/>
      <point x="301" y="160" type="line" smooth="yes"/>
      <point x="301" y="272"/>
      <point x="185" y="367"/>
      <point x="64" y="367" type="qcurve" smooth="yes"/>
      <point x="-178" y="367" type="line"/>
      <point x="-215" y="0" type="line"/>
      <point x="-363" y="0" type="line"/>
      <point x="-326" y="367" type="line"/>
      <point x="-581" y="367" type="line"/>
      <point x="-618" y="0" type="line"/>
      <point x="-766" y="0" type="line"/>
      <point x="-729" y="367" type="line"/>
      <point x="-942" y="367" type="line"/>
      <point x="-942" y="497" type="line"/>
      <point x="-716" y="497" type="line"/>
      <point x="-680" y="847" type="line"/>
      <point x="-891" y="847" type="line"/>
      <point x="-891" y="977" type="line"/>
      <point x="-667" y="977" type="line"/>
      <point x="-633" y="1308" type="line"/>
      <point x="-487" y="1308" type="line"/>
      <point x="-520" y="977" type="line"/>
      <point x="-264" y="977" type="line"/>
      <point x="-230" y="1308" type="line"/>
      <point x="-82" y="1308" type="line"/>
      <point x="-117" y="977" type="line"/>
      <point x="301" y="977" type="line"/>
    </contour>
    <contour>
      <point x="-312" y="497" type="line"/>
      <point x="-277" y="847" type="line"/>
      <point x="-533" y="847" type="line"/>
      <point x="-568" y="497" type="line"/>
    </contour>
    <contour>
      <point x="301" y="847" type="line"/>
      <point x="-130" y="847" type="line"/>
      <point x="-165" y="497" type="line"/>
      <point x="64" y="497" type="line" smooth="yes"/>
      <point x="162" y="497"/>
      <point x="274" y="545"/>
      <point x="291" y="608" type="qcurve" smooth="yes"/>
      <point x="301" y="644"/>
      <point x="301" y="698" type="qcurve" smooth="yes"/>
    </contour>
  </outline>
</glyph>
<glyph name="numbersign_colon.liga" format="2">
  <advance width="1126"/>
  <outline>
    <contour>
      <point x="45" y="367" type="line"/>
      <point x="-178" y="367" type="line"/>
      <point x="-215" y="0" type="line"/>
      <point x="-363" y="0" type="line"/>
      <point x="-326" y="367" type="line"/>
      <point x="-581" y="367" type="line"/>
      <point x="-618" y="0" type="line"/>
      <point x="-766" y="0" type="line"/>
      <point x="-729" y="367" type="line"/>
      <point x="-942" y="367" type="line"/>
      <point x="-942" y="497" type="line"/>
      <point x="-716" y="497" type="line"/>
      <point x="-680" y="847" type="line"/>
      <point x="-891" y="847" type="line"/>
      <point x="-891" y="977" type="line"/>
      <point x="-667" y="977" type="line"/>
      <point x="-633" y="1307" type="line"/>
      <point x="-487" y="1307" type="line"/>
      <point x="-520" y="977" type="line"/>
      <point x="-264" y="977" type="line"/>
      <point x="-230" y="1307" type="line"/>
      <point x="-82" y="1307" type="line"/>
      <point x="-117" y="977" type="line"/>
      <point x="98" y="977" type="line"/>
      <point x="98" y="847" type="line"/>
      <point x="-130" y="847" type="line"/>
      <point x="-165" y="497" type="line"/>
      <point x="45" y="497" type="line"/>
    </contour>
    <contour>
      <point x="-312" y="497" type="line"/>
      <point x="-277" y="847" type="line"/>
      <point x="-533" y="847" type="line"/>
      <point x="-568" y="497" type="line"/>
    </contour>
    <contour>
      <point x="422" y="1022" type="qcurve" smooth="yes"/>
      <point x="487" y="1022"/>
      <point x="576" y="933"/>
      <point x="576" y="803"/>
      <point x="487" y="715"/>
      <point x="422" y="715" type="qcurve" smooth="yes"/>
      <point x="372" y="715"/>
      <point x="299" y="768"/>
      <point x="281" y="808" type="qcurve" smooth="yes"/>
      <point x="269" y="835"/>
      <point x="269" y="868" type="qcurve" smooth="yes"/>
      <point x="269" y="918"/>
      <point x="322" y="992"/>
      <point x="363" y="1010" type="qcurve" smooth="yes"/>
      <point x="390" y="1022"/>
    </contour>
    <contour>
      <point x="422" y="289" type="qcurve" smooth="yes"/>
      <point x="486" y="289"/>
      <point x="576" y="200"/>
      <point x="576" y="70"/>
      <point x="487" y="-18"/>
      <point x="422" y="-18" type="qcurve" smooth="yes"/>
      <point x="372" y="-18"/>
      <point x="299" y="35"/>
      <point x="281" y="76" type="qcurve" smooth="yes"/>
      <point x="269" y="103"/>
      <point x="269" y="135" type="qcurve" smooth="yes"/>
      <point x="269" y="185"/>
      <point x="322" y="258"/>
      <point x="363" y="276" type="qcurve" smooth="yes"/>
      <point x="392" y="289"/>
    </contour>
  </outline>
</glyph>
<glyph name="numbersign_question.liga" format="2">
  <advance width="1126"/>
  <outline>
    <contour>
      <point x="45" y="367" type="line"/>
      <point x="-178" y="367" type="line"/>
      <point x="-215" y="0" type="line"/>
      <point x="-363" y="0" type="line"/>
      <point x="-326" y="367" type="line"/>
      <point x="-581" y="367" type="line"/>
      <point x="-618" y="0" type="line"/>
      <point x="-766" y="0" type="line"/>
      <point x="-729" y="367" type="line"/>
      <point x="-942" y="367" type="line"/>
      <point x="-942" y="497" type="line"/>
      <point x="-716" y="497" type="line"/>
      <point x="-680" y="847" type="line"/>
      <point x="-891" y="847" type="line"/>
      <point x="-891" y="977" type="line"/>
      <point x="-667" y="977" type="line"/>
      <point x="-633" y="1307" type="line"/>
      <point x="-487" y="1307" type="line"/>
      <point x="-520" y="977" type="line"/>
      <point x="-264" y="977" type="line"/>
      <point x="-230" y="1307" type="line"/>
      <point x="-82" y="1307" type="line"/>
      <point x="-117" y="977" type="line"/>
      <point x="98" y="977" type="line"/>
      <point x="98" y="847" type="line"/>
      <point x="-130" y="847" type="line"/>
      <point x="-165" y="497" type="line"/>
      <point x="45" y="497" type="line"/>
    </contour>
    <contour>
      <point x="-312" y="497" type="line"/>
      <point x="-277" y="847" type="line"/>
      <point x="-533" y="847" type="line"/>
      <point x="-568" y="497" type="line"/>
    </contour>
    <contour>
      <point x="377" y="766" type="line" smooth="yes"/>
      <point x="483" y="766"/>
      <point x="592" y="854"/>
      <point x="592" y="952" type="qcurve" smooth="yes"/>
      <point x="592" y="1068"/>
      <point x="458" y="1208"/>
      <point x="350" y="1237" type="qcurve" smooth="yes"/>
      <point x="273" y="1257"/>
      <point x="187" y="1257" type="qcurve" smooth="yes"/>
      <point x="162" y="1257" type="line"/>
      <point x="162" y="1413" type="line"/>
      <point x="189" y="1413" type="line" smooth="yes"/>
      <point x="374" y="1413"/>
      <point x="641" y="1288"/>
      <point x="718" y="1173" type="qcurve" smooth="yes"/>
      <point x="781" y="1077"/>
      <point x="781" y="969" type="qcurve" smooth="yes"/>
      <point x="781" y="652"/>
      <point x="430" y="629" type="qcurve"/>
      <point x="422" y="383" type="line"/>
      <point x="273" y="383" type="line"/>
      <point x="260" y="766" type="line"/>
    </contour>
    <contour>
      <point x="215" y="113" type="qcurve" smooth="yes"/>
      <point x="215" y="170"/>
      <point x="289" y="246"/>
      <point x="403" y="246"/>
      <point x="477" y="170"/>
      <point x="477" y="56"/>
      <point x="403" y="-18"/>
      <point x="346" y="-18" type="qcurve" smooth="yes"/>
      <point x="290" y="-18"/>
      <point x="215" y="57"/>
    </contour>
  </outline>
</glyph>
<glyph name="percent_percent.liga" format="2">
  <advance width="1126"/>
  <outline>
    <contour>
      <point x="-164" y="113" type="curve" smooth="yes"/>
      <point x="-77" y="113"/>
      <point x="-42" y="196"/>
      <point x="-42" y="285" type="curve" smooth="yes"/>
      <point x="-42" y="384"/>
      <point x="-75" y="457"/>
      <point x="-164" y="457" type="curve" smooth="yes"/>
      <point x="-251" y="457"/>
      <point x="-285" y="374"/>
      <point x="-285" y="285" type="curve" smooth="yes"/>
      <point x="-285" y="186"/>
      <point x="-253" y="113"/>
    </contour>
    <contour>
      <point x="-680" y="956" type="curve" smooth="yes"/>
      <point x="-593" y="956"/>
      <point x="-559" y="1039"/>
      <point x="-559" y="1128" type="curve" smooth="yes"/>
      <point x="-559" y="1227"/>
      <point x="-591" y="1300"/>
      <point x="-680" y="1300" type="curve" smooth="yes"/>
      <point x="-767" y="1300"/>
      <point x="-801" y="1217"/>
      <point x="-801" y="1128" type="curve" smooth="yes"/>
      <point x="-801" y="1029"/>
      <point x="-769" y="956"/>
    </contour>
    <contour>
      <point x="-676" y="1427" type="curve" smooth="yes"/>
      <point x="-499" y="1427"/>
      <point x="-412" y="1312"/>
      <point x="-412" y="1133" type="curve" smooth="yes"/>
      <point x="-412" y="993"/>
      <point x="-475" y="897"/>
      <point x="-571" y="852" type="curve" smooth="yes"/>
      <point x="-605" y="836"/>
      <point x="-643" y="829"/>
      <point x="-684" y="829" type="curve" smooth="yes"/>
      <point x="-861" y="829"/>
      <point x="-948" y="945"/>
      <point x="-948" y="1124" type="curve" smooth="yes"/>
      <point x="-948" y="1262"/>
      <point x="-885" y="1360"/>
      <point x="-789" y="1404" type="curve" smooth="yes"/>
      <point x="-755" y="1419"/>
      <point x="-717" y="1427"/>
    </contour>
    <contour>
      <point x="680" y="113" type="curve" smooth="yes"/>
      <point x="767" y="113"/>
      <point x="802" y="196"/>
      <point x="802" y="285" type="curve" smooth="yes"/>
      <point x="802" y="384"/>
      <point x="769" y="457"/>
      <point x="680" y="457" type="curve" smooth="yes"/>
      <point x="593" y="457"/>
      <point x="559" y="374"/>
      <point x="559" y="285" type="curve" smooth="yes"/>
      <point x="559" y="186"/>
      <point x="591" y="113"/>
    </contour>
    <contour>
      <point x="684" y="584" type="curve" smooth="yes"/>
      <point x="862" y="584"/>
      <point x="949" y="468"/>
      <point x="949" y="289" type="curve" smooth="yes"/>
      <point x="949" y="151"/>
      <point x="885" y="53"/>
      <point x="789" y="9" type="curve" smooth="yes"/>
      <point x="755" y="-6"/>
      <point x="717" y="-14"/>
      <point x="676" y="-14" type="curve" smooth="yes"/>
      <point x="499" y="-14"/>
      <point x="412" y="102"/>
      <point x="412" y="281" type="curve" smooth="yes"/>
      <point x="412" y="419"/>
      <point x="475" y="517"/>
      <point x="571" y="561" type="curve" smooth="yes"/>
      <point x="605" y="576"/>
      <point x="643" y="584"/>
    </contour>
    <contour>
      <point x="164" y="956" type="curve" smooth="yes"/>
      <point x="251" y="956"/>
      <point x="285" y="1039"/>
      <point x="285" y="1128" type="curve" smooth="yes"/>
      <point x="285" y="1227"/>
      <point x="253" y="1300"/>
      <point x="164" y="1300" type="curve" smooth="yes"/>
      <point x="77" y="1300"/>
      <point x="43" y="1217"/>
      <point x="43" y="1128" type="curve" smooth="yes"/>
      <point x="43" y="1029"/>
      <point x="75" y="956"/>
    </contour>
    <contour>
      <point x="168" y="1427" type="line" smooth="yes"/>
      <point x="345" y="1427"/>
      <point x="432" y="1312"/>
      <point x="432" y="1133" type="curve" smooth="yes"/>
      <point x="432" y="993"/>
      <point x="369" y="897"/>
      <point x="273" y="852" type="curve" smooth="yes"/>
      <point x="239" y="836"/>
      <point x="201" y="829"/>
      <point x="160" y="829" type="curve" smooth="yes"/>
      <point x="0" y="829"/>
      <point x="-85" y="925"/>
      <point x="-101" y="1072" type="curve"/>
      <point x="-801" y="0" type="line"/>
      <point x="-965" y="0" type="line"/>
      <point x="-36" y="1427" type="line"/>
    </contour>
    <contour>
      <point x="-160" y="584" type="curve" smooth="yes"/>
      <point x="0" y="584"/>
      <point x="86" y="489"/>
      <point x="102" y="343" type="curve"/>
      <point x="799" y="1413" type="line"/>
      <point x="965" y="1413" type="line"/>
      <point x="34" y="-14" type="line"/>
      <point x="-168" y="-14" type="line" smooth="yes"/>
      <point x="-345" y="-14"/>
      <point x="-432" y="102"/>
      <point x="-432" y="281" type="curve" smooth="yes"/>
      <point x="-432" y="419"/>
      <point x="-369" y="517"/>
      <point x="-273" y="561" type="curve" smooth="yes"/>
      <point x="-239" y="576"/>
      <point x="-201" y="584"/>
    </contour>
  </outline>
</glyph>
<glyph name="period_equal.liga" format="2">
  <advance width="1126"/>
  <outline>
    <contour>
      <point x="993" y="646" type="line"/>
      <point x="133" y="646" type="line"/>
      <point x="133" y="793" type="line"/>
      <point x="993" y="793" type="line"/>
    </contour>
    <contour>
      <point x="993" y="298" type="line"/>
      <point x="133" y="298" type="line"/>
      <point x="133" y="445" type="line"/>
      <point x="993" y="445" type="line"/>
    </contour>
    <contour>
      <point x="852" y="646" type="line"/>
      <point x="-8" y="646" type="line"/>
      <point x="-8" y="793" type="line"/>
      <point x="852" y="793" type="line"/>
    </contour>
    <contour>
      <point x="852" y="298" type="line"/>
      <point x="-8" y="298" type="line"/>
      <point x="-8" y="445" type="line"/>
      <point x="852" y="445" type="line"/>
    </contour>
    <contour>
      <point x="-422" y="733" type="qcurve" smooth="yes"/>
      <point x="-350" y="733"/>
      <point x="-256" y="637"/>
      <point x="-256" y="565" type="qcurve" smooth="yes"/>
      <point x="-256" y="510"/>
      <point x="-313" y="431"/>
      <point x="-357" y="412" type="qcurve" smooth="yes"/>
      <point x="-386" y="399"/>
      <point x="-422" y="399" type="qcurve" smooth="yes"/>
      <point x="-477" y="399"/>
      <point x="-556" y="456"/>
      <point x="-575" y="501" type="qcurve" smooth="yes"/>
      <point x="-588" y="530"/>
      <point x="-588" y="565" type="qcurve" smooth="yes"/>
      <point x="-588" y="620"/>
      <point x="-532" y="700"/>
      <point x="-487" y="720" type="qcurve" smooth="yes"/>
      <point x="-458" y="733"/>
    </contour>
  </outline>
</glyph>
<glyph name="period_hyphen.liga" format="2">
  <advance width="1126"/>
  <outline>
    <contour>
      <point x="721" y="463" type="line"/>
      <point x="-1" y="463" type="line"/>
      <point x="-1" y="627" type="line"/>
      <point x="721" y="627" type="line"/>
    </contour>
    <contour>
      <point x="-422" y="733" type="qcurve" smooth="yes"/>
      <point x="-350" y="733"/>
      <point x="-256" y="637"/>
      <point x="-256" y="565" type="qcurve" smooth="yes"/>
      <point x="-256" y="510"/>
      <point x="-313" y="431"/>
      <point x="-357" y="412" type="qcurve" smooth="yes"/>
      <point x="-386" y="399"/>
      <point x="-422" y="399" type="qcurve" smooth="yes"/>
      <point x="-477" y="399"/>
      <point x="-556" y="456"/>
      <point x="-575" y="501" type="qcurve" smooth="yes"/>
      <point x="-588" y="530"/>
      <point x="-588" y="565" type="qcurve" smooth="yes"/>
      <point x="-588" y="620"/>
      <point x="-532" y="700"/>
      <point x="-487" y="720" type="qcurve" smooth="yes"/>
      <point x="-458" y="733"/>
    </contour>
  </outline>
</glyph>
<glyph name="period_period.liga" format="2">
  <advance width="1126"/>
  <outline>
    <contour>
      <point x="414" y="315" type="curve" smooth="yes"/>
      <point x="492" y="315"/>
      <point x="543" y="268"/>
      <point x="567" y="212" type="curve" smooth="yes"/>
      <point x="576" y="192"/>
      <point x="580" y="170"/>
      <point x="580" y="147" type="curve" smooth="yes"/>
      <point x="580" y="52"/>
      <point x="509" y="-18"/>
      <point x="414" y="-18" type="curve" smooth="yes"/>
      <point x="337" y="-18"/>
      <point x="285" y="28"/>
      <point x="261" y="83" type="curve" smooth="yes"/>
      <point x="252" y="103"/>
      <point x="248" y="124"/>
      <point x="248" y="147" type="curve" smooth="yes"/>
      <point x="248" y="224"/>
      <point x="294" y="278"/>
      <point x="349" y="302" type="curve" smooth="yes"/>
      <point x="369" y="311"/>
      <point x="391" y="315"/>
    </contour>
    <contour>
      <point x="-430" y="315" type="curve" smooth="yes"/>
      <point x="-352" y="315"/>
      <point x="-301" y="268"/>
      <point x="-277" y="212" type="curve" smooth="yes"/>
      <point x="-268" y="192"/>
      <point x="-264" y="170"/>
      <point x="-264" y="147" type="curve" smooth="yes"/>
      <point x="-264" y="52"/>
      <point x="-335" y="-18"/>
      <point x="-430" y="-18" type="curve" smooth="yes"/>
      <point x="-507" y="-18"/>
      <point x="-559" y="28"/>
      <point x="-583" y="83" type="curve" smooth="yes"/>
      <point x="-592" y="103"/>
      <point x="-596" y="124"/>
      <point x="-596" y="147" type="curve" smooth="yes"/>
      <point x="-596" y="224"/>
      <point x="-550" y="278"/>
      <point x="-495" y="302" type="curve" smooth="yes"/>
      <point x="-475" y="311"/>
      <point x="-453" y="315"/>
    </contour>
  </outline>
</glyph>
<glyph name="period_period_equal.liga" format="2">
  <advance width="1126"/>
  <outline>
    <contour>
      <point x="-1126" y="733" type="curve" smooth="yes"/>
      <point x="-1030" y="733"/>
      <point x="-960" y="660"/>
      <point x="-960" y="565" type="curve" smooth="yes"/>
      <point x="-960" y="488"/>
      <point x="-1006" y="436"/>
      <point x="-1061" y="412" type="curve" smooth="yes"/>
      <point x="-1081" y="403"/>
      <point x="-1103" y="399"/>
      <point x="-1126" y="399" type="curve" smooth="yes"/>
      <point x="-1203" y="399"/>
      <point x="-1255" y="446"/>
      <point x="-1279" y="501" type="curve" smooth="yes"/>
      <point x="-1288" y="521"/>
      <point x="-1292" y="542"/>
      <point x="-1292" y="565" type="curve" smooth="yes"/>
      <point x="-1292" y="643"/>
      <point x="-1246" y="695"/>
      <point x="-1191" y="720" type="curve" smooth="yes"/>
      <point x="-1171" y="729"/>
      <point x="-1149" y="733"/>
    </contour>
    <contour>
      <point x="-1689" y="733" type="curve" smooth="yes"/>
      <point x="-1593" y="733"/>
      <point x="-1523" y="660"/>
      <point x="-1523" y="565" type="curve" smooth="yes"/>
      <point x="-1523" y="488"/>
      <point x="-1569" y="436"/>
      <point x="-1624" y="412" type="curve" smooth="yes"/>
      <point x="-1644" y="403"/>
      <point x="-1666" y="399"/>
      <point x="-1689" y="399" type="curve" smooth="yes"/>
      <point x="-1766" y="399"/>
      <point x="-1818" y="446"/>
      <point x="-1842" y="501" type="curve" smooth="yes"/>
      <point x="-1851" y="521"/>
      <point x="-1855" y="542"/>
      <point x="-1855" y="565" type="curve" smooth="yes"/>
      <point x="-1855" y="643"/>
      <point x="-1809" y="695"/>
      <point x="-1754" y="720" type="curve" smooth="yes"/>
      <point x="-1734" y="729"/>
      <point x="-1712" y="733"/>
    </contour>
    <contour>
      <point x="993" y="646" type="line"/>
      <point x="-718" y="646" type="line"/>
      <point x="-718" y="793" type="line"/>
      <point x="993" y="793" type="line"/>
    </contour>
    <contour>
      <point x="993" y="298" type="line"/>
      <point x="-718" y="298" type="line"/>
      <point x="-718" y="445" type="line"/>
      <point x="993" y="445" type="line"/>
    </contour>
  </outline>
</glyph>
<glyph name="period_period_period.liga" format="2">
  <advance width="1126"/>
  <outline>
    <contour>
      <point x="273" y="315" type="curve" smooth="yes"/>
      <point x="351" y="315"/>
      <point x="402" y="268"/>
      <point x="426" y="212" type="curve" smooth="yes"/>
      <point x="435" y="192"/>
      <point x="439" y="170"/>
      <point x="439" y="147" type="curve" smooth="yes"/>
      <point x="439" y="52"/>
      <point x="368" y="-18"/>
      <point x="273" y="-18" type="curve" smooth="yes"/>
      <point x="196" y="-18"/>
      <point x="144" y="28"/>
      <point x="120" y="83" type="curve" smooth="yes"/>
      <point x="111" y="103"/>
      <point x="107" y="124"/>
      <point x="107" y="147" type="curve" smooth="yes"/>
      <point x="107" y="224"/>
      <point x="153" y="278"/>
      <point x="208" y="302" type="curve" smooth="yes"/>
      <point x="228" y="311"/>
      <point x="250" y="315"/>
    </contour>
    <contour>
      <point x="-1415" y="315" type="curve" smooth="yes"/>
      <point x="-1337" y="315"/>
      <point x="-1286" y="268"/>
      <point x="-1262" y="212" type="curve" smooth="yes"/>
      <point x="-1253" y="192"/>
      <point x="-1249" y="170"/>
      <point x="-1249" y="147" type="curve" smooth="yes"/>
      <point x="-1249" y="52"/>
      <point x="-1320" y="-18"/>
      <point x="-1415" y="-18" type="curve" smooth="yes"/>
      <point x="-1492" y="-18"/>
      <point x="-1544" y="28"/>
      <point x="-1568" y="83" type="curve" smooth="yes"/>
      <point x="-1577" y="103"/>
      <point x="-1581" y="124"/>
      <point x="-1581" y="147" type="curve" smooth="yes"/>
      <point x="-1581" y="224"/>
      <point x="-1535" y="278"/>
      <point x="-1480" y="302" type="curve" smooth="yes"/>
      <point x="-1460" y="311"/>
      <point x="-1438" y="315"/>
    </contour>
    <contour>
      <point x="-571" y="315" type="curve" smooth="yes"/>
      <point x="-493" y="315"/>
      <point x="-442" y="268"/>
      <point x="-418" y="212" type="curve" smooth="yes"/>
      <point x="-409" y="192"/>
      <point x="-405" y="170"/>
      <point x="-405" y="147" type="curve" smooth="yes"/>
      <point x="-405" y="52"/>
      <point x="-476" y="-18"/>
      <point x="-571" y="-18" type="curve" smooth="yes"/>
      <point x="-648" y="-18"/>
      <point x="-700" y="28"/>
      <point x="-724" y="83" type="curve" smooth="yes"/>
      <point x="-733" y="103"/>
      <point x="-737" y="124"/>
      <point x="-737" y="147" type="curve" smooth="yes"/>
      <point x="-737" y="224"/>
      <point x="-691" y="278"/>
      <point x="-636" y="302" type="curve" smooth="yes"/>
      <point x="-616" y="311"/>
      <point x="-594" y="315"/>
    </contour>
  </outline>
</glyph>
<glyph name="period_question.liga" format="2">
  <advance width="1126"/>
  <outline>
    <contour>
      <point x="377" y="766" type="line" smooth="yes"/>
      <point x="514" y="766"/>
      <point x="592" y="817"/>
      <point x="592" y="952" type="curve" smooth="yes"/>
      <point x="592" y="1116"/>
      <point x="482" y="1202"/>
      <point x="350" y="1237" type="curve" smooth="yes"/>
      <point x="300" y="1250"/>
      <point x="246" y="1257"/>
      <point x="187" y="1257" type="curve" smooth="yes"/>
      <point x="162" y="1257" type="line"/>
      <point x="162" y="1413" type="line"/>
      <point x="189" y="1413" type="line" smooth="yes"/>
      <point x="441" y="1413"/>
      <point x="618" y="1323"/>
      <point x="718" y="1173" type="curve" smooth="yes"/>
      <point x="754" y="1118"/>
      <point x="781" y="1050"/>
      <point x="781" y="969" type="curve" smooth="yes"/>
      <point x="781" y="743"/>
      <point x="647" y="643"/>
      <point x="430" y="629" type="curve"/>
      <point x="422" y="383" type="line"/>
      <point x="273" y="383" type="line"/>
      <point x="260" y="766" type="line"/>
    </contour>
    <contour>
      <point x="215" y="113" type="curve" smooth="yes"/>
      <point x="215" y="189"/>
      <point x="270" y="246"/>
      <point x="346" y="246" type="curve" smooth="yes"/>
      <point x="422" y="246"/>
      <point x="477" y="189"/>
      <point x="477" y="113" type="curve" smooth="yes"/>
      <point x="477" y="37"/>
      <point x="422" y="-18"/>
      <point x="346" y="-18" type="curve" smooth="yes"/>
      <point x="271" y="-18"/>
      <point x="215" y="38"/>
    </contour>
    <contour>
      <point x="-430" y="315" type="curve" smooth="yes"/>
      <point x="-352" y="315"/>
      <point x="-301" y="268"/>
      <point x="-277" y="212" type="curve" smooth="yes"/>
      <point x="-268" y="192"/>
      <point x="-264" y="170"/>
      <point x="-264" y="147" type="curve" smooth="yes"/>
      <point x="-264" y="52"/>
      <point x="-335" y="-18"/>
      <point x="-430" y="-18" type="curve" smooth="yes"/>
      <point x="-507" y="-18"/>
      <point x="-559" y="28"/>
      <point x="-583" y="83" type="curve" smooth="yes"/>
      <point x="-592" y="103"/>
      <point x="-596" y="124"/>
      <point x="-596" y="147" type="curve" smooth="yes"/>
      <point x="-596" y="224"/>
      <point x="-550" y="278"/>
      <point x="-495" y="302" type="curve" smooth="yes"/>
      <point x="-475" y="311"/>
      <point x="-453" y="315"/>
    </contour>
  </outline>
</glyph>
<glyph name="plus_plus_plus.liga" format="2">
  <advance width="1126"/>
  <outline>
    <contour>
      <point x="760" y="469" type="line"/>
      <point x="367" y="469" type="line"/>
      <point x="367" y="61" type="line"/>
      <point x="195" y="61" type="line"/>
      <point x="195" y="469" type="line"/>
      <point x="-477" y="469" type="line"/>
      <point x="-477" y="61" type="line"/>
      <point x="-649" y="61" type="line"/>
      <point x="-649" y="469" type="line"/>
      <point x="-1321" y="469" type="line"/>
      <point x="-1321" y="61" type="line"/>
      <point x="-1493" y="61" type="line"/>
      <point x="-1493" y="469" type="line"/>
      <point x="-1886" y="469" type="line"/>
      <point x="-1886" y="621" type="line"/>
      <point x="-1493" y="621" type="line"/>
      <point x="-1493" y="1026" type="line"/>
      <point x="-1321" y="1026" type="line"/>
      <point x="-1321" y="621" type="line"/>
      <point x="-649" y="621" type="line"/>
      <point x="-649" y="1026" type="line"/>
      <point x="-477" y="1026" type="line"/>
      <point x="-477" y="621" type="line"/>
      <point x="195" y="621" type="line"/>
      <point x="195" y="1026" type="line"/>
      <point x="367" y="1026" type="line"/>
      <point x="367" y="621" type="line"/>
      <point x="760" y="621" type="line"/>
    </contour>
  </outline>
</glyph>
<glyph name="question_colon.liga" format="2">
  <advance width="1126"/>
  <outline>
    <contour>
      <point x="422" y="1022" type="qcurve" smooth="yes"/>
      <point x="472" y="1022"/>
      <point x="546" y="968"/>
      <point x="564" y="927" type="qcurve" smooth="yes"/>
      <point x="576" y="898"/>
      <point x="576" y="868" type="qcurve" smooth="yes"/>
      <point x="576" y="803"/>
      <point x="487" y="715"/>
      <point x="422" y="715" type="qcurve" smooth="yes"/>
      <point x="356" y="715"/>
      <point x="269" y="803"/>
      <point x="269" y="868" type="qcurve" smooth="yes"/>
      <point x="269" y="918"/>
      <point x="321" y="991"/>
      <point x="362" y="1010" type="qcurve" smooth="yes"/>
      <point x="389" y="1022"/>
    </contour>
    <contour>
      <point x="422" y="289" type="qcurve" smooth="yes"/>
      <point x="472" y="289"/>
      <point x="546" y="235"/>
      <point x="564" y="194" type="qcurve" smooth="yes"/>
      <point x="576" y="166"/>
      <point x="576" y="135" type="qcurve" smooth="yes"/>
      <point x="576" y="70"/>
      <point x="487" y="-18"/>
      <point x="422" y="-18" type="qcurve" smooth="yes"/>
      <point x="356" y="-18"/>
      <point x="269" y="70"/>
      <point x="269" y="135" type="qcurve" smooth="yes"/>
      <point x="269" y="185"/>
      <point x="321" y="257"/>
      <point x="362" y="276" type="qcurve" smooth="yes"/>
      <point x="391" y="289"/>
    </contour>
    <contour>
      <point x="-467" y="766" type="line" smooth="yes"/>
      <point x="-361" y="766"/>
      <point x="-252" y="854"/>
      <point x="-252" y="952" type="qcurve" smooth="yes"/>
      <point x="-252" y="1068"/>
      <point x="-386" y="1208"/>
      <point x="-494" y="1237" type="qcurve" smooth="yes"/>
      <point x="-571" y="1257"/>
      <point x="-657" y="1257" type="qcurve" smooth="yes"/>
      <point x="-682" y="1257" type="line"/>
      <point x="-682" y="1413" type="line"/>
      <point x="-655" y="1413" type="line" smooth="yes"/>
      <point x="-470" y="1413"/>
      <point x="-203" y="1288"/>
      <point x="-126" y="1173" type="qcurve" smooth="yes"/>
      <point x="-63" y="1077"/>
      <point x="-63" y="969" type="qcurve" smooth="yes"/>
      <point x="-63" y="652"/>
      <point x="-414" y="629" type="qcurve"/>
      <point x="-422" y="383" type="line"/>
      <point x="-571" y="383" type="line"/>
      <point x="-584" y="766" type="line"/>
    </contour>
    <contour>
      <point x="-629" y="113" type="qcurve" smooth="yes"/>
      <point x="-629" y="170"/>
      <point x="-555" y="246"/>
      <point x="-441" y="246"/>
      <point x="-367" y="170"/>
      <point x="-367" y="56"/>
      <point x="-441" y="-18"/>
      <point x="-498" y="-18" type="qcurve" smooth="yes"/>
      <point x="-554" y="-18"/>
      <point x="-629" y="57"/>
    </contour>
  </outline>
</glyph>
<glyph name="six.numr" format="2">
  <advance width="1126"/>
  <outline>
    <contour>
      <point x="590" y="1118" type="qcurve" smooth="yes"/>
      <point x="731" y="1118"/>
      <point x="887" y="1000"/>
      <point x="887" y="877" type="qcurve" smooth="yes"/>
      <point x="887" y="748"/>
      <point x="703" y="615"/>
      <point x="559" y="615" type="qcurve" smooth="yes"/>
      <point x="238" y="615"/>
      <point x="238" y="965" type="qcurve" smooth="yes"/>
      <point x="238" y="1194"/>
      <point x="458" y="1413"/>
      <point x="690" y="1413" type="qcurve" smooth="yes"/>
      <point x="807" y="1413" type="line"/>
      <point x="807" y="1272" type="line"/>
      <point x="678" y="1272" type="line" smooth="yes"/>
      <point x="560" y="1272"/>
      <point x="433" y="1197"/>
      <point x="424" y="1104" type="qcurve"/>
      <point x="424" y="1094" type="line"/>
      <point x="498" y="1118"/>
    </contour>
    <contour>
      <point x="569" y="756" type="qcurve" smooth="yes"/>
      <point x="632" y="756"/>
      <point x="713" y="817"/>
      <point x="713" y="871" type="qcurve" smooth="yes"/>
      <point x="713" y="927"/>
      <point x="635" y="981"/>
      <point x="567" y="981" type="qcurve" smooth="yes"/>
      <point x="494" y="981"/>
      <point x="418" y="955" type="qcurve"/>
      <point x="418" y="854"/>
      <point x="485" y="756"/>
    </contour>
  </outline>
</glyph>
<glyph name="sixinferior" format="2">
  <advance width="1126"/>
  <outline>
    <contour>
      <point x="590" y="487" type="curve" smooth="yes"/>
      <point x="770" y="487"/>
      <point x="887" y="416"/>
      <point x="887" y="246" type="curve" smooth="yes"/>
      <point x="887" y="66"/>
      <point x="740" y="-16"/>
      <point x="559" y="-16" type="curve" smooth="yes"/>
      <point x="339" y="-16"/>
      <point x="238" y="107"/>
      <point x="238" y="334" type="curve" smooth="yes"/>
      <point x="238" y="639"/>
      <point x="381" y="782"/>
      <point x="690" y="782" type="curve" smooth="yes"/>
      <point x="807" y="782" type="line"/>
      <point x="807" y="641" type="line"/>
      <point x="678" y="641" type="line" smooth="yes"/>
      <point x="531" y="641"/>
      <point x="437" y="603"/>
      <point x="424" y="473" type="curve"/>
      <point x="424" y="463" type="line"/>
      <point x="464" y="476"/>
      <point x="534" y="487"/>
    </contour>
    <contour>
      <point x="569" y="125" type="curve" smooth="yes"/>
      <point x="649" y="125"/>
      <point x="713" y="165"/>
      <point x="713" y="240" type="curve" smooth="yes"/>
      <point x="713" y="317"/>
      <point x="653" y="350"/>
      <point x="567" y="350" type="curve" smooth="yes"/>
      <point x="512" y="350"/>
      <point x="459" y="338"/>
      <point x="418" y="324" type="curve"/>
      <point x="418" y="197"/>
      <point x="452" y="125"/>
    </contour>
  </outline>
</glyph>
<glyph name="threeinferior" format="2">
  <advance width="1126"/>
  <outline>
    <contour>
      <point x="696" y="418" type="curve"/>
      <point x="786" y="394"/>
      <point x="862" y="350"/>
      <point x="862" y="238" type="curve" smooth="yes"/>
      <point x="862" y="99"/>
      <point x="759" y="32"/>
      <point x="642" y="2" type="curve" smooth="yes"/>
      <point x="593" y="-10"/>
      <point x="537" y="-16"/>
      <point x="473" y="-16" type="curve" smooth="yes"/>
      <point x="403" y="-16"/>
      <point x="330" y="-14"/>
      <point x="274" y="0" type="curve"/>
      <point x="274" y="140" type="line"/>
      <point x="326" y="128"/>
      <point x="410" y="124"/>
      <point x="479" y="124" type="curve" smooth="yes"/>
      <point x="574" y="124"/>
      <point x="678" y="149"/>
      <point x="678" y="233" type="curve" smooth="yes"/>
      <point x="678" y="326"/>
      <point x="574" y="338"/>
      <point x="475" y="338" type="curve" smooth="yes"/>
      <point x="393" y="338" type="line"/>
      <point x="393" y="467" type="line"/>
      <point x="469" y="467" type="line" smooth="yes"/>
      <point x="559" y="467"/>
      <point x="641" y="488"/>
      <point x="641" y="573" type="curve" smooth="yes"/>
      <point x="641" y="644"/>
      <point x="574" y="659"/>
      <point x="500" y="659" type="curve" smooth="yes"/>
      <point x="427" y="659"/>
      <point x="348" y="645"/>
      <point x="291" y="627" type="curve"/>
      <point x="291" y="768" type="line"/>
      <point x="359" y="788"/>
      <point x="446" y="799"/>
      <point x="532" y="799" type="curve" smooth="yes"/>
      <point x="694" y="799"/>
      <point x="821" y="747"/>
      <point x="821" y="604" type="curve" smooth="yes"/>
      <point x="821" y="503"/>
      <point x="769" y="450"/>
    </contour>
  </outline>
</glyph>
<glyph name="threesuperior" format="2">
  <advance width="1126"/>
  <outline>
    <contour>
      <point x="696" y="1049" type="qcurve"/>
      <point x="773" y="1028"/>
      <point x="862" y="946"/>
      <point x="862" y="869" type="qcurve" smooth="yes"/>
      <point x="862" y="690"/>
      <point x="642" y="634" type="qcurve" smooth="yes"/>
      <point x="564" y="615"/>
      <point x="473" y="615" type="qcurve" smooth="yes"/>
      <point x="338" y="615"/>
      <point x="274" y="631" type="qcurve"/>
      <point x="274" y="771" type="line"/>
      <point x="343" y="755"/>
      <point x="479" y="755" type="qcurve" smooth="yes"/>
      <point x="531" y="755"/>
      <point x="616" y="773"/>
      <point x="678" y="824"/>
      <point x="678" y="864" type="qcurve" smooth="yes"/>
      <point x="678" y="897"/>
      <point x="644" y="941"/>
      <point x="581" y="962"/>
      <point x="518" y="969"/>
      <point x="475" y="969" type="qcurve" smooth="yes"/>
      <point x="393" y="969" type="line"/>
      <point x="393" y="1098" type="line"/>
      <point x="469" y="1098" type="line" smooth="yes"/>
      <point x="641" y="1098"/>
      <point x="641" y="1204" type="qcurve" smooth="yes"/>
      <point x="641" y="1290"/>
      <point x="500" y="1290" type="qcurve" smooth="yes"/>
      <point x="392" y="1290"/>
      <point x="291" y="1258" type="qcurve"/>
      <point x="291" y="1399" type="line"/>
      <point x="396" y="1430"/>
      <point x="532" y="1430" type="qcurve" smooth="yes"/>
      <point x="663" y="1430"/>
      <point x="821" y="1336"/>
      <point x="821" y="1235" type="qcurve" smooth="yes"/>
      <point x="821" y="1104"/>
    </contour>
  </outline>
</glyph>
<glyph name="w_w_w.liga" format="2">
  <advance width="1126"/>
  <outline>
    <contour>
      <point x="815" y="1307" type="line"/>
      <point x="727" y="0" type="line"/>
      <point x="496" y="0" type="line"/>
      <point x="334" y="465" type="line"/>
      <point x="289" y="614" type="line"/>
      <point x="263" y="520"/>
      <point x="198" y="318"/>
      <point x="112" y="63"/>
      <point x="92" y="0" type="qcurve"/>
      <point x="-131" y="0" type="line"/>
      <point x="-149" y="230" type="line"/>
      <point x="-182" y="0" type="line"/>
      <point x="-393" y="0" type="line"/>
      <point x="-538" y="420" type="line"/>
      <point x="-567" y="522" type="line"/>
      <point x="-598" y="416"/>
      <point x="-731" y="24"/>
      <point x="-739" y="0" type="qcurve"/>
      <point x="-944" y="0" type="line"/>
      <point x="-981" y="255" type="line"/>
      <point x="-1002" y="0" type="line"/>
      <point x="-1233" y="0" type="line"/>
      <point x="-1395" y="465" type="line"/>
      <point x="-1440" y="614" type="line"/>
      <point x="-1466" y="520"/>
      <point x="-1531" y="318"/>
      <point x="-1617" y="63"/>
      <point x="-1637" y="0" type="qcurve"/>
      <point x="-1860" y="0" type="line"/>
      <point x="-1950" y="1307" type="line"/>
      <point x="-1782" y="1307" type="line"/>
      <point x="-1731" y="418" type="line"/>
      <point x="-1716" y="174" type="line"/>
      <point x="-1685" y="279"/>
      <point x="-1613" y="504"/>
      <point x="-1517" y="799"/>
      <point x="-1495" y="866" type="qcurve"/>
      <point x="-1372" y="866" type="line"/>
      <point x="-1150" y="234"/>
      <point x="-1129" y="174" type="qcurve"/>
      <point x="-1125" y="354" type="line"/>
      <point x="-1089" y="1004" type="line"/>
      <point x="-919" y="1004" type="line"/>
      <point x="-817" y="170" type="line"/>
      <point x="-786" y="268"/>
      <point x="-660" y="656"/>
      <point x="-628" y="754" type="qcurve"/>
      <point x="-503" y="754" type="line"/>
      <point x="-486" y="706"/>
      <point x="-339" y="290"/>
      <point x="-301" y="176" type="qcurve"/>
      <point x="-208" y="1004" type="line"/>
      <point x="-36" y="1004" type="line"/>
      <point x="-4" y="450"/>
      <point x="13" y="174" type="qcurve"/>
      <point x="44" y="279"/>
      <point x="116" y="504"/>
      <point x="212" y="799"/>
      <point x="234" y="866" type="qcurve"/>
      <point x="357" y="866" type="line"/>
      <point x="579" y="234"/>
      <point x="600" y="174" type="qcurve"/>
      <point x="604" y="354" type="line"/>
      <point x="656" y="1307" type="line"/>
    </contour>
  </outline>
</glyph>
